PathFileType	4	(X/Y/Z)	C:\Users\Biomechanik\SynologyDrive\AlexP\Athlete_03\Athlete_3_25_03_31\Walking_09\marker_experimental.trc
DataRate	CameraRate	NumFrames	NumMarkers	Units	OrigDataRate	OrigDataStartFrame	OrigNumFrames
200.000000	200.000000	4	53	mm	200.000000	194	222
Frame#	Time	GLAB			RFHD			LFHD			C7			T6			SPINMOL			SPINM2			SPINM3			T12			BELTOL			BELT2			BELT3			SACROL			SACR2			SACR3			LTHOL			LTH2			LTH3			LSHAOL			LSHA2			LSHA3			LHEE			LTOE			LM5			RTH2			RTH3			RSHAOL			RSHA2			RSHA3			RHEE			RTOE			RM5			STRN			XIPH			LACR			LUAOL			LUA2			LUA3			LLAOL			LLA2			LLA3			LWRR			LWRU			RACR			RUAOL			RUA2			RUA3			RLAOL			RLA2			RLA3			RWRR			RWRU			RTHOL			
		X1	Y1	Z1	X2	Y2	Z2	X3	Y3	Z3	X4	Y4	Z4	X5	Y5	Z5	X6	Y6	Z6	X7	Y7	Z7	X8	Y8	Z8	X9	Y9	Z9	X10	Y10	Z10	X11	Y11	Z11	X12	Y12	Z12	X13	Y13	Z13	X14	Y14	Z14	X15	Y15	Z15	X16	Y16	Z16	X17	Y17	Z17	X18	Y18	Z18	X19	Y19	Z19	X20	Y20	Z20	X21	Y21	Z21	X22	Y22	Z22	X23	Y23	Z23	X24	Y24	Z24	X25	Y25	Z25	X26	Y26	Z26	X27	Y27	Z27	X28	Y28	Z28	X29	Y29	Z29	X30	Y30	Z30	X31	Y31	Z31	X32	Y32	Z32	X33	Y33	Z33	X34	Y34	Z34	X35	Y35	Z35	X36	Y36	Z36	X37	Y37	Z37	X38	Y38	Z38	X39	Y39	Z39	X40	Y40	Z40	X41	Y41	Z41	X42	Y42	Z42	X43	Y43	Z43	X44	Y44	Z44	X45	Y45	Z45	X46	Y46	Z46	X47	Y47	Z47	X48	Y48	Z48	X49	Y49	Z49	X50	Y50	Z50	X51	Y51	Z51	X52	Y52	Z52	X53	Y53	Z53	

195	0.97	874.1188354492186	1585.333740234375	199.4567260742189	824.1895751953124	1614.411254882812	263.2232666015627	833.9592285156249	1609.87646484375	124.791702270508	642.7770996093749	1433.267456054688	188.7523956298829	583.5775146484374	1263.774536132812	187.8604888916017	575.2158813476561	1223.431762695312	167.1174926757814	571.1292114257811	1216.604736328125	216.8403930664064	580.0665283203124	1159.553466796875	183.9431152343751	602.4091186523436	1094.590209960938	189.7303924560548	565.6901245117186	1061.693603515625	178.8328094482423	569.7283325195311	1058.4326171875	229.0453338623048	560.5864257812499	999.5239868164062	199.4446105957032	576.0159912109374	955.064208984375	183.3133544921876	585.0144042968749	949.279541015625	233.5014495849611	560.9617309570312	894.1820068359375	205.3936462402345	614.5350341796875	683.9650268554688	14.63251113891613	556.7709350585938	640.49560546875	47.97926330566416	601.7002563476562	626.3043212890625	31.56352996826183	530.041259765625	334.3523864746094	43.80330657958994	470.8151550292969	283.0615539550782	59.03932571411141	520.22607421875	273.7780761718751	54.56457519531259	418.5096740722656	95.12577056884768	154.1626434326173	630.5497436523438	43.48311233520511	145.7894897460939	579.5111083984375	31.50350952148441	46.0905990600587	840.0418701171874	638.2947387695312	382.2215270996095	800.2785034179686	615.549072265625	366.086639404297	860.1115112304686	340.8578491210938	364.5043945312502	909.3967285156249	279.6557922363282	366.3549194335939	862.2918701171874	280.5268249511719	350.0769348144533	889.1080932617188	61.93542480468756	245.9081115722658	1094.495483398438	96.80641937255866	279.0488891601565	1040.934814453125	64.63622283935553	372.1342773437502	810.7962036132811	1330.406127929688	193.8500823974611	823.0533447265624	1186.17626953125	189.9173278808595	724.0688476562499	1398.045776367188	18.62586975097669	746.4368896484374	1254.345092773438	-89.42115783691392	746.9379272460936	1192.614868164062	-111.9836349487303	790.8087158203124	1205.77197265625	-88.07741546630845	867.5232543945311	1021.7548828125	-139.1033630371092	871.8596801757811	944.1195678710938	-124.1580581665037	909.1148071289061	977.3883056640625	-129.2848815917967	985.472412109375	908.8774414062501	-112.8941497802733	1004.9033203125	941.2683105468751	-42.38939285278302	721.0077514648435	1387.524780273438	362.1854248046876	674.6774291992185	1245.81005859375	461.1635131835939	687.9364624023435	1181.875610351562	474.0767211914064	637.9264526367185	1193.757934570312	478.6462707519532	636.802551269531	975.6868286132812	524.7061767578126	680.4671630859374	920.7394409179688	562.7833251953126	643.4239501953124	912.4874877929688	532.6872558593751	667.7267456054686	829.1461791992188	556.6809692382814	717.8426513671874	807.1450805664062	495.9104919433595	765.6320190429686	665.443603515625	376.6947021484376	
196	0.975	881.3006591796874	1583.990356445312	200.445022583008	831.3320312499999	1612.961547851562	264.238006591797	841.1900634765624	1608.685668945312	125.800994873047	649.8828124999999	1432.052734375	189.4053649902345	590.6104736328124	1262.599609375	188.4192962646486	582.2062377929686	1222.24267578125	167.686737060547	578.1741333007811	1215.42578125	217.4143371582032	587.0462646484374	1158.365600585938	184.5230407714845	609.3437499999999	1093.364624023438	190.3721618652345	572.6992187499999	1060.426879882812	179.5528869628907	576.8688354492186	1057.094970703125	229.7508392333986	567.6304321289061	998.2313232421875	200.0985717773439	583.0003662109374	954.2408447265625	183.994110107422	592.2325439453124	948.2543334960938	234.0837249755861	567.5927124023438	893.4111938476562	205.9935607910157	619.1539306640625	683.8125	14.84186553955089	561.26025390625	640.7899169921875	48.56352233886729	605.9563598632812	626.252197265625	31.84569168090831	532.2105102539062	334.7652893066407	43.94308090209971	472.6246643066406	283.9025878906251	59.2311325073243	521.9717407226562	274.2647094726563	54.7363166809083	418.9966125488281	96.25370788574222	154.3342895507813	630.5775756835938	43.36565017700199	145.8599243164064	579.6353149414062	31.56051063537601	46.17695236206065	845.5223999023436	635.9910888671875	382.2284545898439	805.9531249999999	613.5023803710938	365.1416625976564	870.6224365234374	339.0414123535157	364.1912841796877	921.5219726562499	279.1848754882813	366.5119018554689	874.4700927734374	278.8015747070313	350.010223388672	907.839111328125	60.17830276489263	246.6640472412111	1112.170654296875	101.0910797119141	279.3552856445315	1059.811401367188	67.62102508544929	372.6295776367189	817.9432373046874	1329.060913085938	194.363250732422	830.1120605468749	1184.854125976562	190.1914978027345	731.0892944335936	1396.941772460938	19.25168991088881	753.7282104492186	1253.663330078125	-89.06815338134751	754.5231323242186	1192.046997070312	-111.9142913818358	798.3070068359374	1205.278930664062	-87.89288330078111	876.3618164062499	1022.163818359375	-139.0938873291014	881.5307006835936	944.559814453125	-124.2262878417967	918.4405517578124	978.2752685546875	-129.1154937744139	995.5052490234375	910.6707763671876	-112.3633728027342	1014.155456542969	943.2549438476564	-41.72956848144513	728.112854003906	1386.083618164062	362.7834472656251	681.2583007812498	1244.443481445312	461.5748596191407	694.2755126953123	1180.466064453125	474.5245971679689	644.292785644531	1192.508666992188	478.934295654297	642.3378906249998	974.4432373046875	524.9589233398439	685.7097167968749	919.322509765625	563.1359863281251	648.7294311523436	911.2157592773438	532.9299926757814	672.6604003906249	827.7781982421875	556.9740600585939	722.9697875976561	805.6172485351562	496.3413391113282	771.3040161132811	663.4761352539062	375.7048645019532	
197	0.98	888.5324096679686	1582.638061523438	201.4671020507814	838.5254516601561	1611.50244140625	265.2867736816408	848.4692993164061	1607.48583984375	126.8454818725588	657.0427856445311	1430.82177734375	190.0941314697267	597.7033691406249	1261.408935546875	188.9999389648439	589.2581176757811	1221.039672851562	168.2749328613282	585.2760620117186	1214.228515625	218.0057983398439	594.0880737304686	1157.162963867188	185.1174163818361	616.3488769531249	1092.120361328125	191.0145568847657	579.7924804687499	1059.14111328125	180.2763061523439	584.0856933593749	1055.736206054688	230.4604034423829	574.7593994140624	996.9197998046875	200.7535552978517	590.0592651367186	953.4105224609375	184.6992340087892	599.5199584960936	947.2236938476562	234.6947479248048	574.3163452148438	892.62939453125	206.6155242919923	623.8424682617188	683.6820068359375	15.0707359313966	565.8447875976562	641.1014404296875	49.19475555419933	610.2921142578125	626.2220458984375	32.145420074463	534.4571533203125	335.2190246582032	44.07399749755869	474.5063781738281	284.8009948730469	59.41688156127938	523.78515625	274.7998352050782	54.89701080322276	419.5297546386719	97.47672271728518	154.4876708984376	630.6160888671875	43.24329757690433	145.9294586181642	579.7711181640625	31.62352180480961	46.26116943359386	850.9965820312499	633.6892700195312	382.3743286132814	811.6398925781249	611.4597778320312	364.3064270019533	881.0661010742186	337.2963562011719	363.9399414062502	933.5006103515624	278.7829589843751	366.6674804687502	886.5180053710936	277.2008666992188	349.9880981445314	926.1859130859375	58.7057838439942	247.3975830078127	1129.357421875	105.4894104003907	279.4841308593752	1078.287475585938	70.73563385009773	372.9769287109377	825.1522827148436	1327.706420898438	194.9044647216798	837.2376098632811	1183.525512695312	190.4910736083986	738.1626586914061	1395.822631835938	19.90177917480482	761.0238037109374	1252.94287109375	-88.68016815185533	762.0968017578124	1191.4375	-111.8030548095702	805.8038940429686	1204.742919921875	-87.68106079101548	885.1312866210936	1022.505004882812	-139.0466156005858	891.1074218749999	944.9434204101562	-124.2424850463865	927.6773071289061	979.08447265625	-128.918502807617	1005.421447753906	912.3696289062501	-111.8281021118162	1023.321838378906	945.1278076171876	-41.07258224487286	735.2717285156248	1384.623413085938	363.4129943847657	687.9300537109373	1243.037841796875	462.0083923339845	700.717590332031	1179.017700195312	474.9885559082032	650.7631835937498	1191.212524414062	479.2481994628907	648.0042724609373	973.1554565429688	525.2163696289064	691.0860595703124	917.8618774414062	563.4843750000001	654.1678466796874	909.9004516601562	533.1722412109376	677.7324218749999	826.3690185546875	557.2606201171876	728.2205810546874	804.0485229492188	496.746795654297	776.9815673828124	661.51806640625	374.808563232422	
198	0.985	895.8165893554686	1581.281982421875	202.5231018066408	845.7726440429686	1610.0390625	266.369842529297	855.7993164062499	1606.28173828125	127.9253005981447	664.2600708007811	1429.578979492188	190.8187103271486	604.8601074218749	1260.207275390625	189.602752685547	596.3757324218749	1219.827270507812	168.8820648193361	592.4390869140624	1213.017456054688	218.6147918701173	601.1963500976561	1155.949829101562	185.7255706787111	623.4283447265624	1090.862426757812	191.6555175781251	586.9720458984374	1057.846069335938	181.0021057128907	591.3817138671874	1054.366455078125	231.1732482910157	581.9743652343749	995.5992431640625	201.4089508056642	597.1953735351561	952.5762939453125	185.4282073974611	606.8791503906249	946.1914672851562	235.3343353271486	581.1407470703125	891.8380126953125	207.258514404297	628.6129760742188	683.5738525390625	15.31907272338879	570.537353515625	641.4276123046875	49.86970138549815	614.7208862304688	626.2135009765625	32.46121978759777	536.7965698242188	335.7152404785157	44.19429016113291	476.4740295410156	285.7605285644532	59.59280014038094	525.6798095703125	275.3858337402344	55.04509353637705	420.115234375	98.80348205566409	154.6207733154298	630.6707153320312	43.11699295043949	145.9948883056642	579.9194946289062	31.69388008117679	46.34295654296886	856.5112304687499	631.4154052734375	382.6533813476564	817.3818969726561	609.4421997070312	363.5921630859377	891.4326171874999	335.6189575195313	363.7448120117189	945.3218383789061	278.4342956542969	366.8105468750002	898.4183959960936	275.7120361328126	350.003631591797	944.099853515625	57.48936462402349	248.1028900146486	1146.026733398438	109.9421920776368	279.4317016601565	1096.328002929688	73.92360687255866	373.1707763671877	832.4265136718749	1326.348754882812	195.4744720458986	844.4339599609374	1182.1962890625	190.8167114257814	745.2937011718749	1394.69482421875	20.57738113403334	768.3265380859374	1252.189086914062	-88.25542449951158	769.6589965820311	1190.789794921875	-111.645896911621	813.3014526367186	1204.16845703125	-87.44081115722641	893.8300170898436	1022.778686523438	-138.9600677490233	900.5861816406249	945.2689208984375	-124.2053375244139	936.8228759765624	979.8140869140626	-128.6934356689451	1015.217895507812	913.9686889648439	-111.2887649536131	1032.404418945312	946.8848266601564	-40.4204444885252	742.4857788085935	1383.150268554688	364.0743408203126	694.6959838867185	1241.597290039062	462.4642944335939	707.2670898437498	1177.535278320312	475.4681091308595	657.341613769531	1189.873168945312	479.5881652832032	653.807434082031	971.8275146484375	525.4774780273439	696.6011962890624	916.361572265625	563.8282470703126	659.7440795898436	908.5458374023438	533.4137573242189	682.9461669921874	824.9221801757812	557.5408935546876	733.5961303710936	802.4421997070312	497.1291809082032	782.7066650390624	659.586669921875	374.0221252441408	
